<svg width="23" height="23" viewBox="0 0 23 23" fill="none" xmlns="http://www.w3.org/2000/svg">
<g clip-path="url(#clip0_17_8)">
<path d="M11.4668 22.9422C17.7989 22.9422 22.9422 17.8078 22.9422 11.4756C22.9422 5.14331 17.7989 0 11.4668 0C5.1345 0 0 5.14331 0 11.4756C0 17.8078 5.1345 22.9422 11.4668 22.9422ZM11.4668 21.3043C6.03282 21.3043 1.63811 16.9095 1.63811 11.4756C1.63811 6.04162 6.03282 1.64691 11.4668 1.64691C16.9008 1.64691 21.2954 6.04162 21.2954 11.4756C21.2954 16.9095 16.9008 21.3043 11.4668 21.3043Z" fill="black" fill-opacity="0.85"/>
<path d="M13.1749 7.1689C13.9412 7.1689 14.5401 6.55241 14.5401 5.80381C14.5401 5.05521 13.9412 4.43872 13.1749 4.43872C12.4263 4.43872 11.8187 5.05521 11.8187 5.80381C11.8187 6.55241 12.4263 7.1689 13.1749 7.1689ZM11.0436 12.6293L13.4568 13.9855L11.8891 15.3242C11.5809 15.5973 11.5721 15.9671 11.7746 16.1962C11.986 16.4339 12.3559 16.4691 12.6818 16.1784L14.8483 14.3378C15.1477 14.0912 15.0949 13.5628 14.7515 13.3338L12.3823 11.7838L12.8491 10.1457C12.9195 9.90789 13.1926 9.88147 13.3335 10.0752L14.0292 11.0968C14.1878 11.3258 14.4871 11.4139 14.7515 11.2994L16.733 10.4099C17.0853 10.2514 17.2174 9.95192 17.0677 9.63487C16.9179 9.32662 16.6186 9.22975 16.2663 9.37946L14.681 10.084L13.5889 8.57803C13.034 7.7942 12.3295 7.49476 11.1757 7.57402L8.97399 7.72374C8.63052 7.75016 8.38392 7.97915 8.33989 8.33143L8.04925 10.5772C7.99641 10.9559 8.18136 11.2289 8.52483 11.2642C8.8595 11.2994 9.07968 11.0968 9.14133 10.7093L9.40554 8.86866L10.3039 8.80701C10.5064 8.7982 10.709 8.94792 10.6297 9.1769L10.1189 10.9823C9.81066 12.0392 10.4976 12.3298 11.0436 12.6293ZM6.84269 18.0633C7.08048 18.2569 7.42395 18.2746 7.7322 17.9751L9.77543 15.9583C9.94277 15.7822 9.9868 15.7557 10.0837 15.4827L10.9908 13.2105L10.7794 13.0872C10.3743 12.8582 9.97799 12.6293 9.74901 12.2858L8.96518 15.0159L6.84269 17.1121C6.53444 17.4292 6.58729 17.8254 6.84269 18.0633Z" fill="black" fill-opacity="0.85"/>
</g>
<defs>
<clipPath id="clip0_17_8">
<rect width="22.9422" height="22.96" fill="white"/>
</clipPath>
</defs>
</svg>
