<?xml version="1.0" encoding="UTF-8"?>
<!--Generator: Apple Native CoreSVG 326-->
<!DOCTYPE svg
PUBLIC "-//W3C//DTD SVG 1.1//EN"
       "http://www.w3.org/Graphics/SVG/1.1/DTD/svg11.dtd">
<svg version="1.1" xmlns="http://www.w3.org/2000/svg" xmlns:xlink="http://www.w3.org/1999/xlink" viewBox="0 0 148.25 103.062">
 <g>
  <rect height="103.062" opacity="0" width="148.25" x="0" y="0"/>
  <path d="M63.8752 64.3579C55.6392 71.5604 51 80.7648 51 89.0625C51 91.3981 51.4567 93.7069 52.5838 95.75L16.375 95.75C9.6875 95.75 7.25 93.125 7.25 88.6875C7.25 75.1875 21.125 58.75 43.25 58.75C51.3198 58.75 58.2901 60.9244 63.8752 64.3579ZM60.4375 32.3125C60.4375 43 52.375 51.25 43.25 51.25C34.1875 51.25 26.0625 43 26.0625 32.4375C26.0625 21.8125 34.1875 13.9375 43.25 13.9375C52.375 13.9375 60.4375 21.625 60.4375 32.3125Z" fill="black" fill-opacity="0.85"/>
  <path d="M99.625 50.125C110.125 50.125 119.375 40.6875 119.375 28.375C119.375 16.125 110.125 7.25 99.625 7.25C89.1875 7.25 79.9375 16.375 79.9375 28.5C79.9375 40.6875 89.1875 50.125 99.625 50.125ZM69.4375 95.75L129.875 95.75C138.25 95.75 141 93.375 141 89.0625C141 76.375 125.125 58.875 99.625 58.875C74.1875 58.875 58.3125 76.375 58.3125 89.0625C58.3125 93.375 61.0625 95.75 69.4375 95.75Z" fill="black" fill-opacity="0.85"/>
 </g>
</svg>
