<?xml version="1.0" encoding="UTF-8"?>
<!--Generator: Apple Native CoreSVG 326-->
<!DOCTYPE svg
PUBLIC "-//W3C//DTD SVG 1.1//EN"
       "http://www.w3.org/Graphics/SVG/1.1/DTD/svg11.dtd">
<svg version="1.1" xmlns="http://www.w3.org/2000/svg" xmlns:xlink="http://www.w3.org/1999/xlink" viewBox="0 0 91.0625 91.1875">
 <g>
  <rect height="91.1875" opacity="0" width="91.0625" x="0" y="0"/>
  <path d="M0 26L9 26L9 16.25C9 11.5625 11.5625 9.125 16.0625 9.125L25.6875 9.125L25.6875 0.0625L15.9375 0.0625C5.3125 0.0625 0 5.3125 0 15.8125ZM33 9.125L58.125 9.125L58.125 0.0625L33 0.0625ZM82.0625 26L91.0625 26L91.0625 15.8125C91.0625 5.3125 85.75 0.0625 75.125 0.0625L65.4375 0.0625L65.4375 9.125L75 9.125C79.5 9.125 82.0625 11.5625 82.0625 16.25ZM82.0625 57.9375L91.0625 57.9375L91.0625 33.3125L82.0625 33.3125ZM65.4375 91.1875L75.125 91.1875C85.75 91.1875 91.0625 85.9375 91.0625 75.4375L91.0625 65.25L82.0625 65.25L82.0625 75C82.0625 79.75 79.5 82.125 75 82.125L65.4375 82.125ZM33 91.1875L58.125 91.1875L58.125 82.125L33 82.125ZM15.9375 91.1875L25.6875 91.1875L25.6875 82.125L16.0625 82.125C11.5625 82.125 9 79.75 9 75L9 65.25L0 65.25L0 75.4375C0 85.9375 5.3125 91.1875 15.9375 91.1875ZM0 57.9375L9 57.9375L9 33.3125L0 33.3125Z" fill="black" fill-opacity="0.85"/>
  <path d="M22.5625 45.5625C22.5625 48.3125 24.5 50.1875 27.375 50.1875L40.875 50.1875L40.875 63.75C40.875 66.5625 42.75 68.5 45.5 68.5C48.3125 68.5 50.25 66.5625 50.25 63.75L50.25 50.1875L63.75 50.1875C66.5625 50.1875 68.5 48.3125 68.5 45.5625C68.5 42.75 66.5625 40.8125 63.75 40.8125L50.25 40.8125L50.25 27.3125C50.25 24.4375 48.3125 22.5 45.5 22.5C42.75 22.5 40.875 24.4375 40.875 27.3125L40.875 40.8125L27.375 40.8125C24.5 40.8125 22.5625 42.75 22.5625 45.5625Z" fill="black" fill-opacity="0.85"/>
 </g>
</svg>
