<?xml version="1.0" encoding="UTF-8"?>
<!--Generator: Apple Native CoreSVG 326-->
<!DOCTYPE svg
PUBLIC "-//W3C//DTD SVG 1.1//EN"
       "http://www.w3.org/Graphics/SVG/1.1/DTD/svg11.dtd">
<svg version="1.1" xmlns="http://www.w3.org/2000/svg" xmlns:xlink="http://www.w3.org/1999/xlink" viewBox="0 0 99.5625 119.188">
 <g>
  <rect height="119.188" opacity="0" width="99.5625" x="0" y="0"/>
  <path d="M57.375 118.75C76 118.75 87.375 112.125 87.375 100.562L87.375 76.75C95.0625 69.875 99.5625 58.9375 99.5625 47C99.5625 18.8125 81.1875 0 53.875 0C26.625 0 8.375 18.4375 8.375 45.9375C8.375 47.4375 8.4375 48.6875 8.5625 49.875L2.5625 60.5625C0.875 63.625 0 66.6875 0 69.4375C0 74.625 3.125 78.875 8.375 80.4375L8.375 89.75C8.375 99.125 15.125 103.688 23.5 102.75L34.25 101.688L27.875 94.875L27.875 100.562C27.875 112.062 39 118.75 57.375 118.75ZM57.375 109.75C44.1875 109.75 36.375 105.688 36.375 99L36.375 93.1875C36.375 92.5625 36.0625 92.25 35.5 92.3125L22.25 93.8125C19.125 94.125 17.375 92.875 17.375 89.1875L17.375 73.75C17.375 73.3125 17.0625 73 16.4375 73L13.6875 73C10.75 73 9.0625 71.5625 9.0625 69.3125C9.0625 68.0625 9.5 66.625 10.375 65.0625L17.875 51.6875C17.5625 49.75 17.375 47.75 17.375 45.8125C17.375 23.75 31.9375 9.0625 53.875 9.0625C75.8125 9.0625 90.5625 24.1875 90.5625 47C90.5625 57.9375 85.9375 67.5625 78.3125 72.3125L78.3125 99C78.3125 105.688 70.5 109.75 57.375 109.75Z" fill="black" fill-opacity="0.85"/>
  <path d="M37.8125 52.75C43.375 52.75 47.25 49 47.25 43.75C47.25 41.875 46.75 40.5 45.875 39.5625C44.9375 38.6875 44.5625 37.75 44.5625 37.125C44.5625 35.75 45.75 34.75 47.125 34.75C47.6875 34.75 48.4375 34.875 49 35.4375C49.125 35.5625 49.25 35.75 49.3125 35.875C53.125 35.4375 55.0625 33.25 55.0625 29.6875C55.0625 28.3125 56.1875 27.125 57.5625 27.125C58.9375 27.125 60.125 28.375 60.125 29.6875C60.1875 35.375 57.3125 38.9375 51.8125 40.1875C52.1875 41.3125 52.3125 42.5625 52.3125 43.8125C52.3125 48.5625 50 52.4375 46.1875 54.625C48.3125 55.625 50.75 56.125 53.375 56.125C54.625 56.125 55.9375 56 57.25 55.75C57 55.125 56.9375 54.4375 56.9375 53.875C56.9375 41.1875 75.125 39.0625 75.125 27.875C75.125 22.25 70.875 17.9375 65.5625 17.9375C63.5 17.9375 63.125 18 62.6875 18.0625C60.625 15.875 57.6875 14.625 55.1875 14.625C50.625 14.625 47.5 17.5 47.5 21.75C47.5 23.25 46.4375 24.25 44.9375 24.25C43.4375 24.25 42.375 23.125 42.4375 21.625C42.4375 19.625 43.0625 18.375 43.4375 17.1875C42.6875 17.0625 41.9375 17 41.25 17C35.375 17 30.8125 20.625 30.8125 25.0625C30.8125 27.9375 32.75 30.25 35.3125 30.25C36.75 30.25 37.875 31.375 37.875 32.6875C37.875 34.125 36.6875 35.3125 35.3125 35.3125C31.375 35.3125 28.3125 33.5 26.8125 30.625C25.375 32.9375 24.5625 35.625 24.5625 38.375C24.5625 46.4375 29.75 52.75 37.8125 52.75ZM74.125 65.375C79.375 65.375 83.1875 59.5 83.1875 51.5625C83.1875 51 83.1875 50.375 83.1875 49.6875C81.25 50.5625 78.9375 50.9375 76.3125 50.75C74.9375 50.5625 73.875 49.5 73.875 48.125C73.875 46.75 75.0625 45.5 76.4375 45.625C81.5625 46.0625 84.9375 43.25 84.9375 38.6875C84.9375 34.5 83 31 79.6875 28.8125C78.1875 42.4375 61.375 44.25 61.375 53.6875C61.375 56.25 63.0625 58.0625 66 58.0625L66.6875 58.0625C67.5 62.375 70.5 65.375 74.125 65.375Z" fill="black" fill-opacity="0.85"/>
 </g>
</svg>
