<svg width="26" height="25" viewBox="0 0 26 25" fill="none" xmlns="http://www.w3.org/2000/svg">
<g clip-path="url(#clip0_78_17)">
<path d="M0 16.6602C0 17.168 0.351562 17.5195 0.869141 17.5195H2.22656V21.6797C2.22656 22.2266 2.58789 22.5879 3.13477 22.5879H7.28516V23.9453C7.28516 24.4629 7.63672 24.8145 8.14453 24.8145C8.66211 24.8145 9.01367 24.4629 9.01367 23.9453V22.5879H11.5234V23.9453C11.5234 24.4629 11.8848 24.8145 12.3926 24.8145C12.9102 24.8145 13.2617 24.4629 13.2617 23.9453V22.5879H15.7715V23.9453C15.7715 24.4629 16.123 24.8145 16.6406 24.8145C17.1484 24.8145 17.5 24.4629 17.5 23.9453V22.5879H21.6504C22.1973 22.5879 22.5586 22.2266 22.5586 21.6797V17.5098H23.916C24.4336 17.5098 24.7852 17.1582 24.7852 16.6504C24.7852 16.1328 24.4336 15.7812 23.916 15.7812H22.5586V13.2617H23.916C24.4336 13.2617 24.7852 12.9102 24.7852 12.4023C24.7852 11.8848 24.4336 11.5332 23.916 11.5332H22.5586V9.01367H23.916C24.4336 9.01367 24.7852 8.66211 24.7852 8.1543C24.7852 7.63672 24.4336 7.28516 23.916 7.28516H22.5586V3.16406C22.5586 2.61719 22.1973 2.25586 21.6504 2.25586H17.5V0.898438C17.5 0.380859 17.1484 0.0292969 16.6406 0.0292969C16.123 0.0292969 15.7715 0.380859 15.7715 0.898438V2.25586H13.2617V0.898438C13.2617 0.380859 12.9102 0.0292969 12.3926 0.0292969C11.8848 0.0292969 11.5234 0.380859 11.5234 0.898438V2.25586H9.01367V0.898438C9.01367 0.380859 8.66211 0.0292969 8.14453 0.0292969C7.63672 0.0292969 7.28516 0.380859 7.28516 0.898438V2.25586H3.13477C2.58789 2.25586 2.22656 2.61719 2.22656 3.16406V7.29492H0.869141C0.351562 7.29492 0 7.64648 0 8.16406C0 8.67188 0.351562 9.02344 0.869141 9.02344H2.22656V11.543H0.869141C0.351562 11.543 0 11.8945 0 12.4121C0 12.9199 0.351562 13.2715 0.869141 13.2715H2.22656V15.791H0.869141C0.351562 15.791 0 16.1426 0 16.6602ZM3.95508 20.5176V4.32617C3.95508 4.08203 4.05273 3.98438 4.29688 3.98438H20.4883C20.7324 3.98438 20.8301 4.08203 20.8301 4.32617V20.5176C20.8301 20.7617 20.7324 20.8594 20.4883 20.8594H4.29688C4.05273 20.8594 3.95508 20.7617 3.95508 20.5176ZM7.50977 18.1836H17.2949C17.8711 18.1836 18.1641 17.9004 18.1641 17.3047V7.53906C18.1641 6.94336 17.8711 6.66016 17.2949 6.66016H7.50977C6.92383 6.66016 6.64062 6.94336 6.64062 7.53906V17.3047C6.64062 17.9004 6.92383 18.1836 7.50977 18.1836ZM8.06641 16.4648V8.37891C8.06641 8.20312 8.18359 8.0957 8.35938 8.0957H16.4355C16.6113 8.0957 16.7285 8.20312 16.7285 8.37891V16.4648C16.7285 16.6309 16.6113 16.748 16.4355 16.748H8.35938C8.18359 16.748 8.06641 16.6309 8.06641 16.4648Z" fill="white" fill-opacity="0.85"/>
</g>
<defs>
<clipPath id="clip0_78_17">
<rect width="25.1465" height="24.8145" fill="white"/>
</clipPath>
</defs>
</svg>
