<?xml version="1.0" encoding="UTF-8"?>
<!--Generator: Apple Native CoreSVG 326-->
<!DOCTYPE svg
PUBLIC "-//W3C//DTD SVG 1.1//EN"
       "http://www.w3.org/Graphics/SVG/1.1/DTD/svg11.dtd">
<svg version="1.1" xmlns="http://www.w3.org/2000/svg" xmlns:xlink="http://www.w3.org/1999/xlink" viewBox="0 0 138.269 101.432">
 <g>
  <rect height="101.432" opacity="0" width="138.269" x="0" y="0"/>
  <path d="M1.07211 88.5598C5.50961 103.247 27.5721 105.56 51.3221 94.4973L48.4471 88.4348C28.7596 97.6848 10.4471 96.6223 7.50961 86.6848C-0.240391 61.4973 54.3846 59.1848 47.8846 37.2473C44.6971 26.4348 20.2596 28.1223 2.75961 39.9348C-1.11539 42.4348 2.63461 47.9973 6.44711 45.3723C18.7596 37.2473 39.9471 33.9973 41.5096 39.0598C42.6346 42.9973 39.3846 46.0598 25.9471 53.3723C12.7596 60.4973-4.49039 70.4348 1.07211 88.5598Z" fill="black" fill-opacity="0.85"/>
  <path d="M71.9471 85.5598L123.885 33.7473L114.51 24.3723L62.5721 76.1848L58.0096 87.4973C57.5096 88.8098 58.8846 90.3098 60.1971 89.8098ZM128.385 29.3098L133.697 24.1223C136.322 21.4973 136.51 18.6223 134.072 16.2473L132.135 14.2473C129.76 11.8723 126.885 12.1223 124.26 14.6848L118.885 19.8723Z" fill="black" fill-opacity="0.85"/>
 </g>
</svg>
