<svg width="24" height="23" viewBox="0 0 24 23" fill="none" xmlns="http://www.w3.org/2000/svg">
<g clip-path="url(#clip0_78_27)">
<path d="M3.79883 22.959H19.1504C21.6797 22.959 22.959 21.6797 22.959 19.1992V3.76953C22.959 1.2793 21.6797 0 19.1504 0H3.79883C1.2793 0 0 1.26953 0 3.76953V19.1992C0 21.6992 1.2793 22.959 3.79883 22.959ZM3.83789 21.2305C2.4707 21.2305 1.72852 20.5078 1.72852 19.1016V3.85742C1.72852 2.46094 2.4707 1.72852 3.83789 1.72852H19.1211C20.459 1.72852 21.2305 2.46094 21.2305 3.85742V19.1016C21.2305 20.5078 20.459 21.2305 19.1211 21.2305H3.83789Z" fill="white" fill-opacity="0.85"/>
<path d="M9.01392 18.3203C9.63892 18.3203 10.0002 18.0078 10.0002 17.5684C10.0002 17.1289 9.67798 16.8457 9.2483 16.8457C8.37916 16.8457 7.98853 16.4551 7.98853 15.332V13.5156C7.98853 12.373 7.30494 11.543 6.21119 11.377V11.5723C7.30494 11.416 7.98853 10.5957 7.98853 9.46289V7.63672C7.98853 6.51367 8.37916 6.12305 9.2483 6.12305C9.67798 6.12305 10.0002 5.83984 10.0002 5.41016C10.0002 4.96094 9.63892 4.64844 9.01392 4.64844C7.38306 4.64844 6.4065 5.58594 6.4065 7.46094V9.16992C6.4065 10.127 6.16236 10.3711 5.45923 10.5664C4.54127 10.8008 4.55103 12.168 5.45923 12.4121C6.16236 12.6074 6.4065 12.8516 6.4065 13.7988V15.5176C6.4065 17.3828 7.38306 18.3203 9.01392 18.3203ZM13.965 18.3203C15.5959 18.3203 16.5627 17.3828 16.5627 15.5176V13.7988C16.5627 12.8516 16.8166 12.5977 17.5197 12.4121C18.4279 12.1777 18.4377 10.791 17.5197 10.5664C16.8166 10.3613 16.5627 10.127 16.5627 9.16992V7.46094C16.5627 5.58594 15.5959 4.64844 13.965 4.64844C13.34 4.64844 12.9787 4.96094 12.9787 5.41016C12.9787 5.83984 13.301 6.12305 13.7307 6.12305C14.5998 6.12305 14.9807 6.51367 14.9807 7.63672V9.46289C14.9807 10.5957 15.674 11.416 16.7678 11.5723V11.377C15.674 11.543 14.9807 12.373 14.9807 13.5156V15.332C14.9807 16.4551 14.5998 16.8457 13.7307 16.8457C13.301 16.8457 12.9787 17.1289 12.9787 17.5684C12.9787 18.0078 13.34 18.3203 13.965 18.3203Z" fill="white" fill-opacity="0.85"/>
</g>
<defs>
<clipPath id="clip0_78_27">
<rect width="23.3203" height="22.959" fill="white"/>
</clipPath>
</defs>
</svg>
