<?xml version="1.0" encoding="UTF-8"?>
<!--Generator: Apple Native CoreSVG 326-->
<!DOCTYPE svg
PUBLIC "-//W3C//DTD SVG 1.1//EN"
       "http://www.w3.org/Graphics/SVG/1.1/DTD/svg11.dtd">
<svg version="1.1" xmlns="http://www.w3.org/2000/svg" xmlns:xlink="http://www.w3.org/1999/xlink" viewBox="0 0 91.0625 91.1875">
 <g>
  <rect height="91.1875" opacity="0" width="91.0625" x="0" y="0"/>
  <path d="M15.9375 91.1875L75.125 91.1875C85.8125 91.1875 91.0625 85.9375 91.0625 75.4375L91.0625 15.8125C91.0625 5.3125 85.8125 0.0625 75.125 0.0625L15.9375 0.0625C5.3125 0.0625 0 5.3125 0 15.8125L0 75.4375C0 85.9375 5.3125 91.1875 15.9375 91.1875ZM16.0625 82.125C11.5625 82.125 9 79.6875 9 75L9 16.25C9 11.5 11.5625 9.125 16.0625 9.125L75 9.125C79.5 9.125 82.0625 11.5 82.0625 16.25L82.0625 75C82.0625 79.6875 79.5 82.125 75 82.125Z" fill="black" fill-opacity="0.85"/>
  <path d="M46.625 16.625C45.625 16.625 44.6875 17.0625 43.8125 17.875L26.5 34.5C25.875 35.0625 25.3125 36 25.3125 37.25C25.3125 39.4375 27.0625 41.125 29.25 41.125C30 41.125 31.125 40.875 31.9375 40L46.625 25.6875L61.25 40C62.125 40.8125 63.125 41.125 64 41.125C66.125 41.125 67.875 39.4375 67.875 37.25C67.875 36 67.375 35.0625 66.75 34.5L49.375 17.875C48.5625 17.0625 47.5625 16.625 46.625 16.625ZM46.625 74.5C47.5625 74.5 48.625 74.0625 49.375 73.25L66.75 56.625C67.375 56.0625 67.875 55.0625 67.875 53.875C67.875 51.6875 66.125 50 64 50C63.125 50 62.125 50.3125 61.25 51.125L46.625 65.4375L31.9375 51.125C31.125 50.25 30 50 29.25 50C27.0625 50 25.3125 51.6875 25.3125 53.875C25.3125 55.0625 25.875 56.0625 26.5 56.625L43.8125 73.25C44.625 74.0625 45.625 74.5 46.625 74.5Z" fill="black" fill-opacity="0.85"/>
 </g>
</svg>
