<svg aria-label="Cognition logo mark" class="w-full" style="max-width:100px;" xmlns="http://www.w3.org/2000/svg" viewBox="0 0 28 32" fill="none"><path fill="#000" d="M19.331 14.116a2.183 2.183 0 0 1 2.176 0l1.738 1.003a.77.77 0 0 0 .176.072l.037.01c.06.015.12.024.181.025l.009.001c.007 0 .013-.002.02-.003a.818.818 0 0 0 .167-.021l.028-.007a.784.784 0 0 0 .17-.07l.018-.007 3.475-2.006a.806.806 0 0 0 .402-.697V8.403a.805.805 0 0 0-.402-.697L24.051 5.7a.805.805 0 0 0-.805 0L19.77 7.706c-.006.003-.01.008-.014.011a.791.791 0 0 0-.147.113c-.006.007-.012.015-.019.021a.787.787 0 0 0-.103.135c-.004.008-.01.015-.015.023a.797.797 0 0 0-.07.168l-.01.039a.783.783 0 0 0-.025.188v2.006c0 .775-.416 1.497-1.087 1.884a2.183 2.183 0 0 1-2.176 0l-1.738-1.003a.774.774 0 0 0-.213-.083.778.778 0 0 0-.18-.023l-.028.001a.812.812 0 0 0-.168.022c-.01.002-.019.003-.028.006a.797.797 0 0 0-.17.07c-.006.004-.012.005-.017.008l-3.475 2.006a.806.806 0 0 0-.402.697v4.013c0 .288.153.553.402.697l3.475 2.006.016.007c.055.03.112.054.17.07l.03.006c.055.014.11.021.166.022.007 0 .013.003.02.003l.009-.001c.06 0 .12-.01.18-.024l.039-.011c.06-.018.12-.04.176-.072l1.738-1.003a2.182 2.182 0 0 1 2.175 0 2.181 2.181 0 0 1 1.088 1.884v2.006c0 .065.01.128.025.188l.01.038a.79.79 0 0 0 .07.169l.015.023a.79.79 0 0 0 .103.134c.006.007.012.015.019.021.044.043.093.08.146.114.005.002.01.007.014.01l3.475 2.007a.807.807 0 0 0 .805 0l3.475-2.006a.805.805 0 0 0 .402-.697v-4.013a.805.805 0 0 0-.402-.697l-3.475-2.007-.017-.006a.799.799 0 0 0-.17-.071l-.027-.006a.786.786 0 0 0-.17-.023l-.026-.001a.749.749 0 0 0-.182.024.8.8 0 0 0-.213.083l-1.737 1.003a2.18 2.18 0 0 1-2.175 0 2.18 2.18 0 0 1-1.088-1.884 2.18 2.18 0 0 1 1.088-1.883l-.004-.002ZM.402 13.112l3.475 2.007a.807.807 0 0 0 .805 0l3.475-2.007c.005-.002.009-.007.014-.01a.798.798 0 0 0 .146-.114c.007-.006.012-.014.02-.02a.789.789 0 0 0 .102-.135l.015-.023a.796.796 0 0 0 .07-.169l.01-.038a.783.783 0 0 0 .025-.188v-2.007a2.18 2.18 0 0 1 1.088-1.883 2.182 2.182 0 0 1 2.176 0l1.738 1.003a.78.78 0 0 0 .213.083.81.81 0 0 0 .18.024h.01l.019-.002a.808.808 0 0 0 .167-.022c.01-.002.019-.003.028-.006a.797.797 0 0 0 .171-.07l.016-.007L17.84 7.52a.805.805 0 0 0 .403-.697V2.811a.805.805 0 0 0-.403-.697L14.365.108a.805.805 0 0 0-.805 0l-3.475 2.006-.014.011a.792.792 0 0 0-.146.113c-.007.007-.012.015-.02.022a.789.789 0 0 0-.102.134l-.015.023a.797.797 0 0 0-.07.169l-.01.038a.782.782 0 0 0-.025.188v2.006c0 .775-.417 1.497-1.088 1.884a2.182 2.182 0 0 1-2.175 0L4.682 5.7a.771.771 0 0 0-.214-.083.816.816 0 0 0-.18-.024l-.027.002a.826.826 0 0 0-.169.021l-.027.007a.796.796 0 0 0-.171.07l-.017.007L.402 7.706A.805.805 0 0 0 0 8.403v4.013c0 .287.153.553.402.696ZM17.842 24.478l-3.475-2.007-.017-.006a.794.794 0 0 0-.17-.07l-.029-.007a.825.825 0 0 0-.168-.022l-.027-.001a.748.748 0 0 0-.181.024l-.037.01a.786.786 0 0 0-.176.073l-1.738 1.004a2.18 2.18 0 0 1-2.175 0 2.182 2.182 0 0 1-1.088-1.884v-2.007a.783.783 0 0 0-.025-.188l-.01-.038a.79.79 0 0 0-.07-.168c-.004-.009-.01-.015-.015-.024a.789.789 0 0 0-.103-.134l-.019-.021a.855.855 0 0 0-.146-.113l-.014-.011-3.475-2.007a.805.805 0 0 0-.805 0L.404 18.888a.806.806 0 0 0-.403.697v4.013c0 .287.154.553.403.696l3.475 2.007.017.007a.79.79 0 0 0 .17.07l.03.006c.054.013.11.02.165.022.007 0 .014.003.02.003l.01-.002c.06 0 .12-.009.18-.023l.038-.01c.06-.018.12-.041.175-.073l1.738-1.003a2.183 2.183 0 0 1 2.175 0 2.181 2.181 0 0 1 1.088 1.884v2.006c0 .065.01.128.025.189l.01.038c.017.058.04.115.07.168l.015.023c.03.049.064.094.103.135l.019.02c.044.044.093.081.147.114l.013.01 3.475 2.007a.806.806 0 0 0 .805 0l3.475-2.006a.806.806 0 0 0 .402-.697v-4.013a.805.805 0 0 0-.402-.697v-.001Z"></path></svg>