<svg width="280" height="206" viewBox="0 0 280 206" fill="none" xmlns="http://www.w3.org/2000/svg">
  <path d="M242.67 0.460938C261.694 0.460938 277.119 15.885 277.119 34.9114C277.119 53.9383 261.694 69.3623 242.67 69.3623H138.666C116.332 69.3623 104.48 78.5211 104.48 103.546C104.48 122.425 89.1747 137.73 70.2981 137.73H35.3678C16.3438 137.73 0.918335 122.306 0.918335 103.279C0.918335 84.2527 16.3438 68.8286 35.3678 68.8286H70.2981C93.5269 68.8286 104.48 59.5302 104.48 34.6448C104.48 15.7657 119.785 0.460938 138.666 0.460938H242.67Z" fill="black"/>
  <path d="M172.96 136.637C153.936 136.637 138.511 152.061 138.511 171.088C138.511 190.115 153.936 205.539 172.96 205.539H242.67C261.694 205.539 277.119 190.115 277.119 171.088C277.119 152.061 261.694 136.637 242.67 136.637H172.96Z" fill="black"/>
  <defs>
    <clipPath id="clip0_384_1105">
      <rect width="402.919" height="107.159" fill="white" transform="translate(360.163 49.9453)"/>
    </clipPath>
  </defs>
</svg>