<svg width="1689" height="544" viewBox="0 0 1689 544" fill="none" xmlns="http://www.w3.org/2000/svg">
<path d="M141.249 502.762L191.985 493.358L211.06 398.423L32.3042 431.554L13.229 526.489L63.965 517.086L79.7954 438.252L93.0693 435.791L77.2389 514.625L127.975 505.222L143.805 426.388L157.079 423.928L141.249 502.762ZM0.250071 543.394L198.966 506.565L200.736 497.437L2.01993 534.266L0.250071 543.394ZM23.4549 427.494L222.269 390.646L224.137 381.499L25.3231 418.347L23.4549 427.494ZM200.24 491.829L340.157 465.896L359.232 370.961L219.315 396.893L200.24 491.829ZM265.921 407.855L304.366 400.73L293.452 454.953L255.007 462.078L265.921 407.855ZM187.261 508.734L347.138 479.103L348.908 469.975L189.03 499.606L187.261 508.734ZM210.465 392.833L370.441 363.184L372.309 354.037L212.334 383.687L210.465 392.833ZM389.617 456.729L440.353 447.326L455.004 374.111L496.202 366.475L500.627 344.755L367.494 369.43L363.07 391.15L404.268 383.514L389.617 456.729ZM358.645 365.37L511.836 336.978L513.704 327.831L360.513 356.224L358.645 365.37ZM335.44 481.271L488.533 452.897L490.303 443.769L337.21 472.143L335.44 481.271ZM489.8 438.162L629.718 412.23L648.793 317.294L508.876 343.226L489.8 438.162ZM555.482 354.188L593.927 347.063L583.013 401.286L544.568 408.411L555.482 354.188ZM476.821 455.067L636.699 425.436L638.469 416.308L478.591 445.939L476.821 455.067ZM500.026 339.166L660.002 309.517L661.87 300.37L501.894 330.02L500.026 339.166ZM789.401 327.234L796.972 289.831L657.055 315.763L637.98 410.698L688.716 401.295L696.189 364.11L724.506 358.861L727.161 394.169L777.897 384.766L774.062 345.677L789.401 327.234ZM625.001 427.604L784.878 397.972L786.648 388.844L626.771 418.476L625.001 427.604ZM648.206 311.703L808.181 282.053L810.05 272.907L650.074 302.557L648.206 311.703ZM735.126 337.293L700.22 343.763L703.661 326.725L742.107 319.599L739.452 332.691L735.126 337.293ZM938.859 293.534L945.152 262.367L805.235 288.299L793.632 346.05L882.814 329.521L879.372 346.359L840.927 353.484L843.09 342.583L792.354 351.987L786.16 383.235L926.077 357.303L937.581 299.77L848.4 316.299L851.841 299.261L890.286 292.136L888.123 302.937L938.859 293.534ZM773.181 400.14L933.058 370.509L934.828 361.381L774.95 391.012L773.181 400.14ZM796.385 284.239L956.361 254.59L958.229 245.443L798.254 275.093L796.385 284.239ZM1070.42 298.25L1083.2 285.181L1093.33 234.904L953.414 260.836L934.339 355.771L985.075 346.368L991.761 312.829L1070.42 298.25ZM921.36 372.677L1081.24 343.045L1083.01 333.917L923.13 363.549L921.36 372.677ZM944.565 256.776L1104.54 227.126L1106.41 217.98L946.433 247.63L944.565 256.776ZM1000.02 271.798L1038.47 264.672L1034.34 285.338L995.891 292.463L1000.02 271.798ZM1082.52 328.308L1222.44 302.376L1241.51 207.44L1101.59 233.372L1082.52 328.308ZM1148.2 244.334L1186.65 237.209L1175.73 291.432L1137.29 298.557L1148.2 244.334ZM1069.54 345.213L1229.42 315.582L1231.19 306.454L1071.31 336.085L1069.54 345.213ZM1092.74 229.313L1252.72 199.663L1254.59 190.517L1094.61 220.166L1092.74 229.313ZM1382.12 217.38L1389.69 179.977L1249.77 205.909L1230.7 300.844L1281.43 291.441L1288.91 254.256L1317.22 249.008L1319.88 284.316L1370.62 274.912L1366.78 235.823L1382.12 217.38ZM1217.72 317.75L1377.6 288.118L1379.37 278.99L1219.49 308.622L1217.72 317.75ZM1240.92 201.849L1400.9 172.199L1402.77 163.053L1242.79 192.703L1240.92 201.849ZM1327.84 227.439L1292.94 233.909L1296.38 216.871L1334.83 209.746L1332.17 222.838L1327.84 227.439ZM1420.08 265.745L1470.81 256.342L1485.46 183.126L1526.66 175.491L1531.09 153.771L1397.95 178.445L1393.53 200.166L1434.73 192.53L1420.08 265.745ZM1389.1 174.386L1542.29 145.993L1544.16 136.847L1390.97 165.239L1389.1 174.386ZM1365.9 290.286L1518.99 261.912L1520.76 252.784L1367.67 281.158L1365.9 290.286ZM1672.96 157.476L1679.25 126.31L1539.33 152.242L1527.73 209.992L1616.91 193.464L1613.47 210.301L1575.03 217.427L1577.19 206.526L1526.45 215.929L1520.26 247.177L1660.18 221.245L1671.68 163.713L1582.5 180.242L1585.94 163.204L1624.39 156.079L1622.22 166.88L1672.96 157.476ZM1507.28 264.083L1667.16 234.451L1668.93 225.323L1509.05 254.955L1507.28 264.083ZM1530.49 148.182L1690.46 118.532L1692.33 109.386L1532.35 139.036L1530.49 148.182Z" fill="#FEB027"/>
<path d="M188.248 327.051L195.82 289.648L55.9023 315.58L36.8272 410.515L87.5631 401.112L95.0359 363.927L123.354 358.679L126.008 393.986L176.744 384.583L172.91 345.494L188.248 327.051ZM23.8482 427.421L183.725 397.789L185.495 388.661L25.6181 418.293L23.8482 427.421ZM47.053 311.52L207.029 281.87L208.897 272.724L48.9212 302.374L47.053 311.52ZM133.973 337.11L99.0672 343.58L102.509 326.542L140.954 319.417L138.299 332.509L133.973 337.11ZM185.007 383.052L235.743 373.648L243.215 336.463L281.661 329.338L274.188 366.523L324.924 357.12L343.999 262.184L204.082 288.116L185.007 383.052ZM172.028 399.957L331.905 370.326L333.675 361.198L173.798 390.829L172.028 399.957ZM195.233 284.057L355.208 254.407L357.076 245.261L197.101 274.91L195.233 284.057ZM250.688 299.078L289.133 291.953L285.692 308.991L247.247 316.116L250.688 299.078ZM333.186 355.588L473.104 329.656L492.179 234.721L352.262 260.653L333.186 355.588ZM398.868 271.615L437.313 264.49L426.399 318.712L387.954 325.838L398.868 271.615ZM320.207 372.494L480.085 342.862L481.855 333.734L321.977 363.366L320.207 372.494ZM343.412 256.593L503.388 226.943L505.256 217.797L345.28 247.447L343.412 256.593Z" fill="#FEB027"/>
</svg>
