<?xml version="1.0" encoding="UTF-8"?>
<!--Generator: Apple Native CoreSVG 326-->
<!DOCTYPE svg
PUBLIC "-//W3C//DTD SVG 1.1//EN"
       "http://www.w3.org/Graphics/SVG/1.1/DTD/svg11.dtd">
<svg version="1.1" xmlns="http://www.w3.org/2000/svg" xmlns:xlink="http://www.w3.org/1999/xlink" viewBox="0 0 146.938 146.938">
 <g>
  <rect height="146.938" opacity="0" width="146.938" x="0" y="0"/>
  <path d="M146.938 24.125L146.938 122.875C146.938 138.75 138.75 146.938 122.562 146.938L24.3125 146.938C8.1875 146.938 0 138.875 0 122.875L0 24.125C0 8.125 8.1875 0 24.3125 0L122.562 0C138.75 0 146.938 8.1875 146.938 24.125ZM100.438 41.3125L64.3125 98.75L46.3125 76.25C44.625 74.0625 43.0625 73.375 41.125 73.375C38 73.375 35.5625 75.9375 35.5625 79.0625C35.5625 80.625 36.1875 82.1875 37.25 83.5625L58.5625 109.312C60.375 111.625 62.1875 112.625 64.5625 112.625C66.9375 112.625 68.875 111.5 70.3125 109.312L109.438 47.875C110.312 46.5625 111.125 44.9375 111.125 43.4375C111.125 40.25 108.312 38.125 105.375 38.125C103.5 38.125 101.688 39.25 100.438 41.3125Z" fill="forestgreen" fill-opacity="0.85"/>
 </g>
</svg>
