<?xml version="1.0" encoding="UTF-8"?>
<!--Generator: Apple Native CoreSVG 326-->
<!DOCTYPE svg
PUBLIC "-//W3C//DTD SVG 1.1//EN"
       "http://www.w3.org/Graphics/SVG/1.1/DTD/svg11.dtd">
<svg version="1.1" xmlns="http://www.w3.org/2000/svg" xmlns:xlink="http://www.w3.org/1999/xlink" viewBox="0 0 146.938 146.938">
 <g>
  <rect height="146.938" opacity="0" width="146.938" x="0" y="0"/>
  <path d="M146.938 24.125L146.938 122.875C146.938 138.75 138.75 146.938 122.562 146.938L24.3125 146.938C8.1875 146.938 0 138.875 0 122.875L0 24.125C0 8.125 8.1875 0 24.3125 0L122.562 0C138.75 0 146.938 8.1875 146.938 24.125ZM92.375 37.75L74.3125 64.5625L73.9375 64.5625L55.625 37.6875C54 35.4375 52.625 34.5625 50.1875 34.5625C47.1875 34.5625 44.625 36.9375 44.625 39.875C44.625 41.4375 45.0625 42.4375 46.1875 43.9375L66.4375 72.5L45.1875 102.438C44.25 103.812 43.875 104.688 43.875 106.188C43.875 109 46.1875 111.125 49.1875 111.125C51.5 111.125 52.6875 110.25 54.5 107.812L73.0625 81.0625L73.375 81.0625L91.8125 107.812C93.625 110.25 94.875 111.125 97.1875 111.125C100.375 111.125 102.75 109 102.75 105.938C102.75 104.438 102.312 103.375 101.375 102.125L80.375 72.8125L101.562 43.375C102.562 42.0625 103 40.875 103 39.625C103 36.75 100.625 34.5625 97.5625 34.5625C95.3125 34.5625 93.875 35.4375 92.375 37.75Z" fill="red" fill-opacity="0.85"/>
 </g>
</svg>
