<?xml version="1.0" encoding="UTF-8"?>
<!--Generator: Apple Native CoreSVG 326-->
<!DOCTYPE svg
PUBLIC "-//W3C//DTD SVG 1.1//EN"
       "http://www.w3.org/Graphics/SVG/1.1/DTD/svg11.dtd">
<svg version="1.1" xmlns="http://www.w3.org/2000/svg" xmlns:xlink="http://www.w3.org/1999/xlink" viewBox="0 0 146.938 146.938">
 <g>
  <rect height="146.938" opacity="0" width="146.938" x="0" y="0"/>
  <path d="M24.3125 146.938L122.562 146.938C138.75 146.938 146.938 138.75 146.938 122.875L146.938 24.125C146.938 8.1875 138.75 0 122.562 0L24.3125 0C8.1875 0 0 8.125 0 24.125L0 122.875C0 138.875 8.1875 146.938 24.3125 146.938ZM24.5625 135.875C15.8125 135.875 11.0625 131.25 11.0625 122.25L11.0625 24.6875C11.0625 15.75 15.8125 11.0625 24.5625 11.0625L122.375 11.0625C130.938 11.0625 135.875 15.75 135.875 24.6875L135.875 122.25C135.875 131.25 130.938 135.875 122.375 135.875Z" fill="black" fill-opacity="0.85"/>
  <path d="M114.062 73.375C114.062 71.9375 113.625 70.75 112.25 69.375L86.25 42.625C85.1875 41.5625 84.0625 41 82.625 41C79.8125 41 77.75 43.1875 77.75 46C77.75 47.375 78.3125 48.8125 79.4375 49.75L93.375 63.0625L98.8125 68.3125L87 67.875L38.75 67.875C35.8125 67.875 33.375 70.375 33.375 73.375C33.375 76.3125 35.8125 78.8125 38.75 78.8125L87 78.8125L98.875 78.4375L93.375 83.6875L79.4375 97C78.3125 97.9375 77.75 99.4375 77.75 100.812C77.75 103.625 79.8125 105.75 82.625 105.75C84.0625 105.75 85.1875 105.188 86.25 104.125L112.25 77.3125C113.625 75.9375 114.062 74.75 114.062 73.375Z" fill="black" fill-opacity="0.85"/>
 </g>
</svg>
