<svg width="22" height="27" viewBox="0 0 22 27" fill="none" xmlns="http://www.w3.org/2000/svg">
<g clip-path="url(#clip0_94_2556)">
<path d="M18.9258 5.24414V15.8149C18.5201 15.1878 17.983 14.6529 17.3535 14.2511V5.26367C17.3535 4.29688 16.7969 3.75 15.8203 3.75H5.60547C4.58984 3.75 4.07227 4.30664 4.07227 5.26367V20.0293C4.07227 20.9961 4.58984 21.543 5.60547 21.543H10.102C10.5088 22.1746 11.0491 22.7122 11.6833 23.1152H5.52734C3.51562 23.1152 2.5 22.0898 2.5 20.0488V5.24414C2.5 3.20312 3.51562 2.17773 5.52734 2.17773H15.8984C17.9199 2.17773 18.9258 3.19336 18.9258 5.24414Z" fill="black" fill-opacity="0.85"/>
<path d="M15.0195 10.5273C15.0195 10.8691 14.7656 11.1328 14.4238 11.1328H7.01172C6.66016 11.1328 6.40625 10.8691 6.40625 10.5273C6.40625 10.1953 6.66016 9.93164 7.01172 9.93164H14.4238C14.7656 9.93164 15.0195 10.1953 15.0195 10.5273Z" fill="black" fill-opacity="0.85"/>
<path d="M15.0195 7.11914C15.0195 7.46094 14.7656 7.73438 14.4238 7.73438H7.01172C6.66016 7.73438 6.40625 7.46094 6.40625 7.11914C6.40625 6.78711 6.66016 6.5332 7.01172 6.5332H14.4238C14.7656 6.5332 15.0195 6.78711 15.0195 7.11914Z" fill="black" fill-opacity="0.85"/>
<path d="M14.5215 22.627C16.6797 22.627 18.457 20.8496 18.457 18.6816C18.457 16.5234 16.6797 14.7363 14.5215 14.7363C12.3535 14.7363 10.5762 16.5234 10.5762 18.6816C10.5762 20.8496 12.3535 22.627 14.5215 22.627ZM14.5215 21.3086C13.0859 21.3086 11.8945 20.1172 11.8945 18.6719C11.8945 17.2461 13.0859 16.0547 14.5215 16.0547C15.957 16.0547 17.1484 17.2461 17.1484 18.6719C17.1484 20.1172 15.957 21.3086 14.5215 21.3086ZM19.6777 24.6973C20.127 24.6973 20.459 24.3555 20.459 23.8672C20.459 23.6523 20.3516 23.4473 20.1953 23.291L17.6367 20.7227L16.4551 21.8652L19.0039 24.3945C19.1992 24.5996 19.4043 24.6973 19.6777 24.6973Z" fill="black" fill-opacity="0.85"/>
</g>
<defs>
<clipPath id="clip0_94_2556">
<rect width="21.7969" height="26.0254" fill="black"/>
</clipPath>
</defs>
</svg>
