<svg width="24" height="24" viewBox="0 0 24 24" fill="none" xmlns="http://www.w3.org/2000/svg">
<path d="M11.6515 23.312C18.0858 23.312 23.312 18.0948 23.312 11.6605C23.312 5.22619 18.0858 0 11.6515 0C5.21724 0 0 5.22619 0 11.6605C0 18.0948 5.21724 23.312 11.6515 23.312ZM11.6515 21.6476C6.13003 21.6476 1.66451 17.182 1.66451 11.6605C1.66451 6.13898 6.13003 1.67345 11.6515 1.67345C17.1731 1.67345 21.6386 6.13898 21.6386 11.6605C21.6386 17.182 17.1731 21.6476 11.6515 21.6476Z" fill="black" fill-opacity="0.85"/>
<path d="M9.60182 18.068H14.3179C14.7296 18.068 15.0517 17.7636 15.0517 17.361C15.0517 16.9672 14.7296 16.654 14.3179 16.654H12.7429V10.3987C12.7429 9.87967 12.4744 9.52171 11.9733 9.52171H9.77185C9.3602 9.52171 9.03803 9.82597 9.03803 10.2197C9.03803 10.6224 9.3602 10.9267 9.77185 10.9267H11.1768V16.654H9.60182C9.19017 16.654 8.87695 16.9672 8.87695 17.361C8.87695 17.7636 9.19017 18.068 9.60182 18.068ZM11.5706 7.48135C12.3313 7.48135 12.9219 6.87282 12.9219 6.13005C12.9219 5.36939 12.3313 4.76086 11.5706 4.76086C10.8189 4.76086 10.2193 5.36939 10.2193 6.13005C10.2193 6.87282 10.8189 7.48135 11.5706 7.48135Z" fill="black" fill-opacity="0.85"/>
</svg>
