<?xml version="1.0" encoding="UTF-8"?>
<!--Generator: Apple Native CoreSVG 326-->
<!DOCTYPE svg
PUBLIC "-//W3C//DTD SVG 1.1//EN"
       "http://www.w3.org/Graphics/SVG/1.1/DTD/svg11.dtd">
<svg version="1.1" xmlns="http://www.w3.org/2000/svg" xmlns:xlink="http://www.w3.org/1999/xlink" viewBox="0 0 146.938 146.938">
 <g>
  <rect height="146.938" opacity="0" width="146.938" x="0" y="0"/>
  <path d="M24.3125 146.938L122.562 146.938C138.75 146.938 146.938 138.75 146.938 122.875L146.938 24.125C146.938 8.1875 138.75 0 122.562 0L24.3125 0C8.1875 0 0 8.125 0 24.125L0 122.875C0 138.875 8.1875 146.938 24.3125 146.938ZM24.5625 135.875C15.8125 135.875 11.0625 131.25 11.0625 122.25L11.0625 24.6875C11.0625 15.75 15.8125 11.0625 24.5625 11.0625L122.375 11.0625C130.938 11.0625 135.875 15.75 135.875 24.6875L135.875 122.25C135.875 131.25 130.938 135.875 122.375 135.875Z" fill="black" fill-opacity="0.85"/>
  <path d="M33.375 73.375C33.375 74.75 33.8125 75.9375 35.1875 77.3125L61.1875 104.125C62.25 105.188 63.375 105.75 64.8125 105.75C67.625 105.75 69.6875 103.625 69.6875 100.812C69.6875 99.4375 69.125 97.9375 68 97L54.0625 83.6875L48.625 78.4375L60.5 78.8125L108.75 78.8125C111.625 78.8125 114.062 76.3125 114.062 73.375C114.062 70.375 111.625 67.875 108.75 67.875L60.5 67.875L48.625 68.3125L54.0625 63.0625L68 49.75C69.125 48.8125 69.6875 47.375 69.6875 46C69.6875 43.1875 67.625 41 64.8125 41C63.375 41 62.25 41.5625 61.1875 42.625L35.1875 69.375C33.8125 70.75 33.375 71.9375 33.375 73.375Z" fill="black" fill-opacity="0.85"/>
 </g>
</svg>
