<?xml version="1.0" encoding="UTF-8"?>
<!--Generator: Apple Native CoreSVG 326-->
<!DOCTYPE svg
PUBLIC "-//W3C//DTD SVG 1.1//EN"
       "http://www.w3.org/Graphics/SVG/1.1/DTD/svg11.dtd">
<svg version="1.1" xmlns="http://www.w3.org/2000/svg" xmlns:xlink="http://www.w3.org/1999/xlink" viewBox="0 0 97.5 136.438">
 <g>
  <rect height="136.438" opacity="0" width="97.5" x="0" y="0"/>
  <path d="M97.5 68.1875C97.5 66.375 96.8125 64.875 95.5 63.625L31.25 1.8125C30.0625 0.625 28.5625 0 26.8125 0C23.3125 0 20.5625 2.625 20.5625 6.1875C20.5625 7.875 21.25 9.4375 22.375 10.5625L82.25 68.1875L22.375 125.75C21.25 126.875 20.5625 128.375 20.5625 130.125C20.5625 133.688 23.3125 136.375 26.8125 136.375C28.5625 136.375 30.0625 135.688 31.25 134.562L95.5 72.75C96.8125 71.4375 97.5 69.9375 97.5 68.1875Z" fill="#004b95" fill-opacity="0.85"/>
 </g>
</svg>
