<svg width="27" height="33" viewBox="0 0 27 33" fill="none" xmlns="http://www.w3.org/2000/svg">
<g clip-path="url(#clip0_78_40)">
<path d="M18.6359 3.53516H7.33984C7.40239 2.64931 7.97685 2.12891 8.91559 2.12891H17.0601C17.9989 2.12891 18.5733 2.64931 18.6359 3.53516Z" fill="white" fill-opacity="0.85"/>
<path d="M21.1563 6.942C20.8093 6.88925 20.4417 6.86523 20.0585 6.86523H5.91787C5.53107 6.86523 5.16036 6.88947 4.81055 6.94255C4.9443 5.91296 5.65953 5.33203 6.80654 5.33203H19.1698C20.3166 5.33203 21.024 5.91275 21.1563 6.942Z" fill="white" fill-opacity="0.85"/>
<path d="M5.91797 30.7324H20.0586C22.5781 30.7324 23.8574 29.4531 23.8574 26.9629V12.7441C23.8574 10.2637 22.5781 8.98438 20.0586 8.98438H5.91797C3.38867 8.98438 2.11914 10.2539 2.11914 12.7441V26.9629C2.11914 29.4629 3.38867 30.7324 5.91797 30.7324ZM5.94727 29.0039C4.58984 29.0039 3.84766 28.2715 3.84766 26.875V12.8418C3.84766 11.4355 4.58984 10.7129 5.94727 10.7129H20.0293C21.3574 10.7129 22.1289 11.4355 22.1289 12.8418V26.875C22.1289 28.2715 21.3574 29.0039 20.0293 29.0039H5.94727Z" fill="white" fill-opacity="0.85"/>
<path d="M14.8048 15.3809C15.6056 15.3809 16.2403 14.7266 16.2403 13.9355C16.2403 13.1445 15.6056 12.5 14.8048 12.5C14.0138 12.5 13.3692 13.1445 13.3692 13.9355C13.3692 14.7266 14.0138 15.3809 14.8048 15.3809ZM12.5587 21.1328L15.0978 22.5586L13.4474 23.9648C13.1153 24.248 13.1056 24.6387 13.3204 24.8828C13.545 25.127 13.9356 25.1758 14.2872 24.873L16.5626 22.9297C16.8751 22.666 16.8165 22.1094 16.4552 21.8652L13.9649 20.2344L14.463 18.5156C14.5313 18.2617 14.8243 18.2324 14.961 18.4375L15.6935 19.5117C15.8692 19.7559 16.1817 19.8438 16.4552 19.7266L18.545 18.7891C18.9161 18.623 19.0528 18.3008 18.8966 17.9688C18.7403 17.6465 18.4278 17.5391 18.0567 17.7051L16.3868 18.4473L15.2442 16.8555C14.6485 16.0352 13.9063 15.7129 12.6954 15.8008L10.3712 15.957C10.0099 15.9863 9.75599 16.2305 9.71693 16.6016L9.39466 18.9648C9.34583 19.3652 9.54115 19.6484 9.90247 19.6875C10.254 19.7266 10.4884 19.5117 10.547 19.1113L10.8302 17.168L11.7774 17.0996C11.9923 17.0898 12.1974 17.2461 12.1192 17.4902L11.5821 19.3848C11.2599 20.5078 11.9825 20.8105 12.5587 21.1328ZM8.12513 26.8457C8.37904 27.0605 8.74036 27.0703 9.0724 26.7578L11.2208 24.6289C11.3966 24.4434 11.4356 24.4141 11.5431 24.1309L12.5001 21.7383L12.2755 21.6113C11.8556 21.3672 11.4356 21.123 11.1915 20.7617L10.3712 23.6426L8.1349 25.8496C7.80286 26.1816 7.86146 26.6016 8.12513 26.8457Z" fill="white" fill-opacity="0.85"/>
</g>
<defs>
<clipPath id="clip0_78_40">
<rect width="26.3379" height="32.8418" fill="white"/>
</clipPath>
</defs>
</svg>
