<svg width="18" height="22" viewBox="0 0 18 22" fill="none" xmlns="http://www.w3.org/2000/svg">
<g clip-path="url(#clip0_17_8084)">
<path d="M3.47638 21.4638H13.8474C15.8689 21.4638 16.8748 20.4384 16.8748 18.4072V9.54001C16.8748 8.28025 16.7283 7.73337 15.947 6.93259L10.5662 1.45407C9.82404 0.692353 9.20881 0.526337 8.11506 0.526337H3.47638C1.46466 0.526337 0.449036 1.5615 0.449036 3.59275V18.4072C0.449036 20.4482 1.4549 21.4638 3.47638 21.4638ZM3.54474 19.8915C2.53888 19.8915 2.02131 19.3544 2.02131 18.3779V3.62204C2.02131 2.65525 2.53888 2.09861 3.55451 2.09861H7.90021V7.77243C7.90021 9.0029 8.51545 9.60837 9.73615 9.60837H15.3025V18.3779C15.3025 19.3544 14.7849 19.8915 13.7693 19.8915H3.54474ZM9.91193 8.13376C9.52131 8.13376 9.37482 7.97751 9.37482 7.58689V2.40134L14.9998 8.13376H9.91193Z" fill="white" fill-opacity="0.85"/>
</g>
<defs>
<clipPath id="clip0_17_8084">
<rect width="16.7871" height="20.9473" fill="white" transform="translate(0.449036 0.526337)"/>
</clipPath>
</defs>
</svg>
